<svg width="35" height="46" viewBox="0 0 35 46" fill="none" xmlns="http://www.w3.org/2000/svg">
<path d="M32.956 22.6957C32.48 21.5635 31.9375 20.2807 31.4107 18.697C30.0282 14.5512 34.4452 10.0292 34.4872 9.98725L32.0127 7.51275C31.7677 7.75775 26.0225 13.5992 28.0892 19.803C28.6597 21.5145 29.2302 22.8655 29.7307 24.0555C30.8986 26.363 31.5049 28.9138 31.5 31.5C31.2949 33.5846 30.4946 35.5662 29.1945 37.2085C27.8944 38.8509 26.1494 40.0847 24.1675 40.7627C24.7936 38.3087 24.7843 35.7356 24.1404 33.2862C23.4965 30.8367 22.2392 28.5917 20.4872 26.7627L18.6602 24.9357L17.6417 27.3105C14.4287 34.8075 10.605 38.08 8.35625 39.445C6.97576 38.5995 5.8157 37.4385 4.97145 36.0572C4.1272 34.676 3.62289 33.1141 3.5 31.5C3.62072 29.297 4.17309 27.1392 5.12575 25.1492C6.25556 22.7504 6.89287 20.1494 7 17.5V14.3885C8.5295 15.0185 10.5 16.6687 10.5 21V25.5552L13.5502 22.1707C18.9962 16.1262 17.8605 8.9285 15.6607 4.13175C17.3329 4.68912 18.7688 5.79297 19.7373 7.26558C20.7058 8.73819 21.1506 10.4939 21 12.25H24.5C24.5 2.56025 16.4867 0 12.25 0H8.75L10.85 2.79825C11.0897 3.122 15.8585 9.6705 13.2177 16.2522C12.6301 14.5983 11.5532 13.1622 10.13 12.1348C8.7069 11.1074 7.00487 10.5372 5.25 10.5H3.5V17.5C3.37928 19.703 2.8269 21.8607 1.87425 23.8507C0.744443 26.2496 0.10713 28.8506 0 31.5C0 38.234 6.69025 45.5 17.5 45.5C28.3097 45.5 35 38.234 35 31.5C35.0026 28.4474 34.3033 25.435 32.956 22.6957ZM11.9612 41.1705C13.6238 39.7943 15.1218 38.2401 16.4305 36.5398C17.6629 34.9387 18.7275 33.2079 19.6035 31.374C20.5678 32.9311 21.1157 34.71 21.1945 36.5398C21.2732 38.3697 20.8802 40.189 20.0532 41.8232C19.2069 41.9371 18.354 41.9962 17.5 42C15.6219 42.013 13.7532 41.7331 11.9612 41.1705Z" fill="#BD00FF"/>
</svg>
