<svg width="25" height="25" viewBox="0 0 25 25" fill="none" xmlns="http://www.w3.org/2000/svg">
<path d="M20.8333 0H4.16667C1.80556 0 0 1.80556 0 4.16667V20.8333C0 23.1944 1.80556 25 4.16667 25H20.8333C23.1944 25 25 23.1944 25 20.8333V4.16667C25 1.80556 23.1944 0 20.8333 0ZM12.5 8.33333C14.8611 8.33333 16.6667 10.1389 16.6667 12.5C16.6667 14.8611 14.8611 16.6667 12.5 16.6667C10.1389 16.6667 8.33333 14.8611 8.33333 12.5C8.33333 10.1389 10.1389 8.33333 12.5 8.33333ZM17.7778 5.55556C17.7778 4.58333 18.6111 3.88889 19.4444 3.88889C20.2778 3.88889 21.1111 4.72222 21.1111 5.55556C21.1111 6.38889 20.4167 7.22222 19.4444 7.22222C18.4722 7.22222 17.7778 6.52778 17.7778 5.55556ZM20.8333 22.2222H4.16667C3.33333 22.2222 2.77778 21.6667 2.77778 20.8333V12.5H5.55556C5.55556 16.3889 8.61111 19.4444 12.5 19.4444C16.3889 19.4444 19.4444 16.3889 19.4444 12.5H22.2222V20.8333C22.2222 21.6667 21.6667 22.2222 20.8333 22.2222Z" fill="#FCFCFC"/>
</svg>
