<svg width="28" height="23" viewBox="0 0 28 23" fill="none" xmlns="http://www.w3.org/2000/svg">
<path d="M28 2.69372C26.9516 3.15816 25.8396 3.46286 24.7009 3.59768C25.9003 2.88004 26.7978 1.75077 27.2262 0.420351C26.0988 1.08962 24.8652 1.56089 23.5787 1.81375C23.0412 1.24047 22.3918 0.783684 21.6705 0.471692C20.9493 0.159701 20.1716 -0.0008451 19.3858 3.34537e-06C16.2136 3.34537e-06 13.6413 2.57154 13.6413 5.74451C13.6413 6.19431 13.6922 6.6332 13.7904 7.05391C9.01601 6.81428 4.78345 4.5271 1.95011 1.05124C1.43924 1.92795 1.1708 2.92479 1.17232 3.93949C1.17156 4.88527 1.40445 5.8166 1.85027 6.65071C2.2961 7.48483 2.94106 8.1959 3.72786 8.72075C2.81578 8.69178 1.92381 8.44545 1.12614 8.00224C1.12541 8.02624 1.12541 8.04987 1.12541 8.0746C1.12541 10.857 3.10533 13.1788 5.73287 13.7071C4.88681 13.9361 3.99974 13.9697 3.13879 13.8053C3.86967 16.087 5.99104 17.7484 8.50476 17.7949C6.4699 19.3918 3.95713 20.258 1.37049 20.2541C0.906874 20.2541 0.449801 20.2272 0 20.1738C2.62656 21.8614 5.68347 22.7572 8.80548 22.754C19.3716 22.754 25.1496 14.0013 25.1496 6.41103C25.1496 6.16231 25.1437 5.91396 25.1328 5.66706C26.2581 4.85469 27.2291 3.84774 28 2.69372Z" fill="#FCFCFC"/>
</svg>
