<svg width="25" height="25" viewBox="0 0 25 25" fill="none" xmlns="http://www.w3.org/2000/svg">
<path d="M23.6201 0H1.37986C1.0139 0 0.662926 0.145378 0.404152 0.404152C0.145378 0.662926 0 1.0139 0 1.37986V23.6205C9.20739e-05 23.9864 0.145511 24.3373 0.404275 24.596C0.663039 24.8547 1.01396 25 1.37986 25H13.3531V15.3187H10.0951V11.5458H13.3531V8.76319C13.3531 5.53403 15.3253 3.77604 18.2059 3.77604C19.5858 3.77604 20.7715 3.87847 21.1174 3.92465V7.2993L19.1194 7.30035C17.5528 7.30035 17.2497 8.04479 17.2497 9.13715V11.5462H20.9858L20.4993 15.3191H17.2497V25H23.6205C23.9864 24.9999 24.3373 24.8545 24.596 24.5957C24.8547 24.337 25 23.986 25 23.6201V1.37986C25 1.0139 24.8546 0.662926 24.5958 0.404152C24.3371 0.145378 23.9861 0 23.6201 0Z" fill="#FCFCFC"/>
</svg>
