<svg width="52" height="52" viewBox="0 0 52 52" fill="none" xmlns="http://www.w3.org/2000/svg">
<path fill-rule="evenodd" clip-rule="evenodd" d="M52 26C52 40.3594 40.3594 52 26 52C11.6406 52 0 40.3594 0 26C0 11.6406 11.6406 0 26 0C40.3594 0 52 11.6406 52 26ZM37.375 24.375C38.2725 24.375 39 25.1025 39 26C39 26.8975 38.2725 27.625 37.375 27.625H18.5481L25.524 34.6009C26.1587 35.2355 26.1587 36.2644 25.524 36.899C24.8894 37.5336 23.8606 37.5336 23.226 36.899L13.476 27.149C12.8413 26.5144 12.8413 25.4855 13.476 24.8509L23.226 15.101C23.8606 14.4663 24.8894 14.4663 25.524 15.101C26.1587 15.7356 26.1587 16.7644 25.524 17.399L18.5481 24.375H37.375Z" fill="black"/>
<path d="M26 0C11.6406 0 0 11.6406 0 26C0 40.3594 11.6406 52 26 52C40.3594 52 52 40.3594 52 26C52 11.6406 40.3594 0 26 0ZM37.375 24.375C38.2725 24.375 39 25.1025 39 26C39 26.8975 38.2725 27.625 37.375 27.625H18.5481L25.524 34.6009C26.1587 35.2355 26.1587 36.2644 25.524 36.899C24.8894 37.5337 23.8605 37.5337 23.2259 36.899L13.476 27.149C12.8413 26.5144 12.8413 25.4855 13.476 24.8509L23.2259 15.101C23.8605 14.4663 24.8894 14.4663 25.524 15.101C26.1587 15.7356 26.1587 16.7644 25.524 17.399L18.5481 24.375H37.375Z" fill="#FCFCFC"/>
</svg>
